:SAMPLES-PER-SECOND 30
:FULLY-SPECIFIED
:DEGREES
75
root  25.09755563 39.27244352 36.05644346 -6.289289951 5.973430157 4.224579811
lowerback  10.48460007 -0.1363459975 -5.919370174
upperback  1.577329993 -0.7854769826 1.310600042
thorax  -4.132339954 -0.2941539884 4.82543993
lowerneck  -15.85879993 -5.680560112 -15.32569981
upperneck  26.64039993 -6.152070045 8.298970222
head  12.18350029 -3.296910048 4.792150021
lclavicle  0 -5.34481991e-014 2.981770104e-014
lhumerus  -38.5766983 8.269479752 81.89160156
lradius  -2.689406575e-031 -2.288216841e-031 40.39199829
lwrist  -7.062250077e-031 -3.531125038e-031 4.132900238
lhand  -7.194195418e-031 -10.99030018 29.22500038
lfingers  90 7.125020027 -90
lthumb  93.60609759 13.18353757 74.55324989
rclavicle  0 -5.34481991e-014 2.981770104e-014
rhumerus  -34.96730042 -13.06649971 -75.62850189
rradius  3.197642692e-031 1.497973716e-031 25.10129929
rwrist  7.062250077e-031 -3.531125038e-031 8.423359871
rhand  -0 -19.19659996 11.78100014
rfingers  -90 -7.125020027 -90
rthumb  -86.40096024 -26.69676298 -82.03035859
rfemur  -25.85479927 -8.517729759 14.86450005
rtibia  -0 0 56.43320084
rfoot  -0 -9.076860428 -12.19400024
rtoes  1.64163687 19.93526204 -94.80479799
lfemur  4.121439934 2.757980108 -26.86759949
ltibia  -0 0 24.5387001
lfoot  4.601211063e-032 -16.40439987 -6.464930058
ltoes  -6.49260803 -18.95776874 -109.3057595
76
root  25.07644413 39.27288806 36.38022115 -6.153580189 5.863190174 3.787620068
lowerback  10.36810017 -0.1784619987 -5.601150036
upperback  1.553920031 -0.7919359803 1.475280046
thorax  -4.09348011 -0.301786989 4.817349911
lowerneck  -15.81369972 -5.662730217 -15.34640026
upperneck  26.44519997 -6.173940182 8.482709885
head  12.10610008 -3.283279896 4.858719826
lclavicle  0 -5.34481991e-014 2.981770104e-014
lhumerus  -38.12170029 8.097940445 81.83999634
lradius  -2.674328369e-031 -2.305821288e-031 40.76810074
lwrist  -1.412450015e-030 -0 4.212480068
lhand  -7.183436969e-031 -10.53929996 29.0685997
lfingers  90 7.125020027 -90
lthumb  93.65432049 12.97376681 74.12015108
rclavicle  0 -5.34481991e-014 2.981770104e-014
rhumerus  -35.05009842 -14.02789974 -75.09300232
rradius  3.216521572e-031 1.456994514e-031 24.36919975
rwrist  0 -0 9.477140427
rhand  -0 -19.08740044 11.62460041
rfingers  -90 -7.125020027 -90
rthumb  -86.37211408 -26.53881609 -81.92341922
rfemur  -26.08849907 -8.006839752 15.54510021
rtibia  -0 0 53.67219925
rfoot  -0 -9.232359886 -12.84739971
rtoes  3.12253147 19.76460774 -99.16417629
lfemur  4.761119843 2.834549904 -26.25349998
ltibia  -0 0 23.93540001
lfoot  4.606593874e-032 -16.63030052 -6.503210068
ltoes  -6.919668499 -18.81097305 -110.6251814
77
root  25.065778 39.27822263 36.70777749 -5.95291996 5.92825985 3.777019978
lowerback  10.28639984 -0.2679170072 -5.651470184
upperback  1.44927001 -0.9128199816 1.503640056
thorax  -4.141670227 -0.3566890061 4.891870022
lowerneck  -15.82400036 -5.64921999 -15.35130024
upperneck  26.41939926 -6.192299843 8.620240211
head  12.10459995 -3.275099993 4.909900188
lclavicle  0 -5.34481991e-014 2.981770104e-014
lhumerus  -37.96969986 7.986310005 81.70939636
lradius  -2.645146328e-031 -2.339240248e-031 41.48799896
lwrist  -1.059337512e-030 1.765562519e-031 4.00880003
lhand  -7.164676719e-031 -9.699839592 32.18059921
lfingers  90 7.125020027 -90
lthumb  94.75016459 15.83829462 73.06617137
rclavicle  0 -5.34481991e-014 2.981770104e-014
rhumerus  -35.33890152 -14.81840038 -74.57550049
rradius  3.23283588e-031 1.420428178e-031 23.71949959
rwrist  7.062250077e-031 -3.531125038e-031 10.25909996
rhand  -0 -19.09539986 13.87030029
rfingers  -90 -7.125020027 -90
rthumb  -86.01656315 -28.76202733 -81.76520976
rfemur  -26.24819946 -7.6730299 15.61779976
rtibia  -0 0 50.76919937
rfoot  -0 -9.130760193 -13.16320038
rtoes  3.964387573 19.6189428 -101.6622085
lfemur  5.406099796 2.966470003 -26.11590004
ltibia  -0 0 23.28890038
lfoot  -0 -16.74060059 -6.646460056
ltoes  -7.328667411 -18.66025732 -111.8984731
78
root  25.05333367 39.29266742 37.03333337 -5.740699768 5.962069988 3.968349934
lowerback  10.16930008 -0.2987399995 -5.955009937
upperback  1.402510047 -0.9816640019 1.504179955
thorax  -4.111619949 -0.3861519992 5.072500229
lowerneck  -16.00930023 -5.644370079 -15.24709988
upperneck  26.54369926 -6.172389984 8.554860115
head  12.18179989 -3.262389898 4.872089863
lclavicle  0 -5.34481991e-014 2.981770104e-014
lhumerus  -37.76530075 7.69438982 81.70610046
lradius  -2.595100327e-031 -2.394639499e-031 42.69940186
lwrist  0 -0 3.434030056
lhand  -0 -9.254099846 34.20700073
lfingers  90 7.125020027 -90
lthumb  95.49533962 17.70122377 72.44186517
rclavicle  0 -5.34481991e-014 2.981770104e-014
rhumerus  -35.6507988 -15.49040031 -74.06569672
rradius  3.241555084e-031 1.400415893e-031 23.36529922
rwrist  1.059337512e-030 -3.531125038e-031 10.73750019
rhand  -7.494093303e-031 -19.54560089 17.76939964
rfingers  -90 -7.125020027 -90
rthumb  -85.63387533 -32.63920363 -81.94262832
rfemur  -26.30069923 -7.248939991 15.42599964
rtibia  -0 0 47.71720123
rfoot  -0 -8.719639778 -13.32619953
rtoes  4.310256951 19.54861896 -102.69406
lfemur  6.069570065 3.087490082 -26.20779991
ltibia  -0 0 22.59399986
lfoot  9.213615324e-032 -16.63920021 -6.772099972
ltoes  -7.883272093 -18.43955626 -113.6416731
